<?xml version="1.0" encoding="UTF-8"?>
<svg xmlns="http://www.w3.org/2000/svg" xmlns:xlink="http://www.w3.org/1999/xlink" width="32pt" height="32pt" viewBox="0 0 32 32" version="1.1">
<g id="surface1">
<path style=" stroke:none;fill-rule:nonzero;fill:rgb(100%,89.411765%,71.764706%);fill-opacity:1;" d="M 26.894531 31.472656 C 26.667969 31.472656 26.449219 31.382812 26.289062 31.222656 L 25.074219 30.003906 C 24.882812 29.808594 24.785156 29.539062 24.804688 29.269531 C 24.816406 29.082031 24.910156 28.910156 25.0625 28.800781 L 27.261719 27.285156 L 28.800781 25.058594 C 28.90625 24.90625 29.078125 24.8125 29.265625 24.800781 L 29.332031 24.800781 C 29.582031 24.800781 29.824219 24.898438 30.003906 25.070312 L 31.222656 26.289062 C 31.554688 26.625 31.554688 27.164062 31.222656 27.5 L 27.5 31.222656 C 27.339844 31.382812 27.121094 31.472656 26.894531 31.472656 Z M 26.894531 31.472656 "/>
<path style=" stroke:none;fill-rule:nonzero;fill:rgb(100%,89.411765%,71.764706%);fill-opacity:1;" d="M 29.75 25.3125 C 29.625 25.195312 29.453125 25.132812 29.28125 25.140625 C 29.195312 25.144531 29.113281 25.1875 29.0625 25.257812 L 27.546875 27.453125 C 27.515625 27.496094 27.476562 27.53125 27.433594 27.5625 L 25.246094 29.085938 C 25.175781 29.136719 25.136719 29.214844 25.132812 29.300781 C 25.121094 29.476562 25.183594 29.648438 25.304688 29.773438 L 26.523438 30.988281 C 26.726562 31.191406 27.054688 31.191406 27.261719 30.988281 L 30.976562 27.273438 C 31.179688 27.070312 31.179688 26.738281 30.976562 26.535156 Z M 29.75 25.3125 "/>
<path style=" stroke:none;fill-rule:nonzero;fill:rgb(80.784314%,44.313725%,28.627451%);fill-opacity:1;" d="M 13.386719 16.636719 L 16.632812 13.394531 L 28.464844 25.226562 L 27.140625 27.144531 L 25.21875 28.46875 Z M 13.386719 16.636719 "/>
<path style=" stroke:none;fill-rule:nonzero;fill:rgb(80.784314%,44.313725%,28.627451%);fill-opacity:1;" d="M 26.898438 26.902344 L 28.027344 25.265625 L 16.632812 13.867188 L 13.863281 16.632812 L 25.261719 28.03125 Z M 26.898438 26.902344 "/>
<path style=" stroke:none;fill-rule:nonzero;fill:rgb(100%,89.411765%,71.764706%);fill-opacity:1;" d="M 1.335938 12.25 L 12.246094 1.335938 L 20.335938 9.425781 L 9.421875 20.339844 Z M 10.832031 8.8125 C 9.722656 8.816406 8.824219 9.722656 8.828125 10.835938 C 8.832031 11.945312 9.738281 12.84375 10.851562 12.839844 C 11.960938 12.835938 12.859375 11.929688 12.855469 10.816406 C 12.851562 10.289062 12.640625 9.78125 12.269531 9.40625 C 11.890625 9.023438 11.371094 8.8125 10.832031 8.8125 Z M 10.832031 8.8125 "/>
<path style=" stroke:none;fill-rule:nonzero;fill:rgb(100%,89.411765%,71.764706%);fill-opacity:1;" d="M 16.328125 12.960938 L 19.863281 9.425781 L 12.246094 1.8125 L 1.808594 12.25 L 9.425781 19.867188 L 16.3125 12.980469 Z M 12.507812 12.511719 C 11.582031 13.421875 10.09375 13.40625 9.1875 12.480469 C 8.277344 11.554688 8.292969 10.066406 9.21875 9.160156 C 10.132812 8.265625 11.59375 8.265625 12.507812 9.160156 C 13.433594 10.066406 13.449219 11.554688 12.542969 12.480469 C 12.53125 12.492188 12.519531 12.503906 12.507812 12.511719 Z M 12.507812 12.511719 "/>
<path style=" stroke:none;fill-rule:nonzero;fill:rgb(100%,89.411765%,71.764706%);fill-opacity:1;" d="M 10.832031 12.683594 C 9.8125 12.683594 8.988281 11.859375 8.988281 10.839844 C 8.988281 9.820312 9.816406 8.992188 10.835938 8.992188 C 11.855469 8.996094 12.679688 9.820312 12.679688 10.839844 C 12.679688 11.328125 12.484375 11.796875 12.136719 12.144531 C 11.792969 12.492188 11.324219 12.6875 10.832031 12.683594 Z M 10.832031 12.683594 "/>
<path style=" stroke:none;fill-rule:nonzero;fill:rgb(100%,89.411765%,71.764706%);fill-opacity:1;" d="M 12.34375 10.84375 C 12.34375 11.675781 11.667969 12.351562 10.832031 12.351562 C 10 12.351562 9.324219 11.675781 9.324219 10.84375 C 9.324219 10.007812 10 9.332031 10.832031 9.332031 C 11.667969 9.332031 12.34375 10.007812 12.34375 10.84375 Z M 12.34375 10.84375 "/>
<path style=" stroke:none;fill-rule:nonzero;fill:rgb(80.784314%,44.313725%,28.627451%);fill-opacity:1;" d="M 7.722656 21.148438 C 7.164062 21.152344 6.628906 20.929688 6.238281 20.535156 L 1.140625 15.4375 C 0.394531 14.695312 0.3125 13.511719 0.953125 12.671875 L 1.183594 12.363281 L 9.308594 20.488281 L 9 20.71875 C 8.632812 21 8.183594 21.148438 7.71875 21.148438 Z M 7.722656 21.148438 "/>
<path style=" stroke:none;fill-rule:nonzero;fill:rgb(80.784314%,44.313725%,28.627451%);fill-opacity:1;" d="M 0.859375 13.941406 C 0.855469 14.414062 1.042969 14.867188 1.378906 15.199219 L 6.472656 20.296875 C 7.101562 20.921875 8.09375 20.988281 8.800781 20.453125 L 1.230469 12.871094 C 0.992188 13.179688 0.863281 13.554688 0.859375 13.941406 Z M 0.859375 13.941406 "/>
<path style=" stroke:none;fill-rule:nonzero;fill:rgb(80.784314%,44.313725%,28.627451%);fill-opacity:1;" d="M 12.359375 1.191406 L 12.667969 0.957031 C 13.507812 0.316406 14.691406 0.394531 15.4375 1.144531 L 20.53125 6.238281 C 21.269531 6.988281 21.347656 8.167969 20.714844 9.007812 L 20.484375 9.316406 Z M 12.359375 1.191406 "/>
<path style=" stroke:none;fill-rule:nonzero;fill:rgb(80.784314%,44.313725%,28.627451%);fill-opacity:1;" d="M 20.292969 6.476562 L 15.199219 1.382812 C 14.570312 0.753906 13.570312 0.691406 12.871094 1.238281 L 20.449219 8.804688 C 20.984375 8.101562 20.917969 7.105469 20.292969 6.476562 Z M 20.292969 6.476562 "/>
<path style=" stroke:none;fill-rule:nonzero;fill:rgb(17.647059%,14.509804%,12.54902%);fill-opacity:1;" d="M 31.585938 25.925781 L 30.367188 24.722656 C 30.0625 24.421875 29.640625 24.269531 29.214844 24.304688 C 28.96875 24.324219 28.730469 24.421875 28.546875 24.589844 L 17.234375 13.261719 L 20.898438 9.601562 C 21.925781 8.570312 21.925781 6.902344 20.898438 5.875 L 15.800781 0.777344 C 14.773438 -0.25 13.105469 -0.25 12.074219 0.777344 L 0.769531 12.082031 C -0.257812 13.109375 -0.257812 14.777344 0.769531 15.808594 L 5.867188 20.90625 C 6.898438 21.929688 8.566406 21.929688 9.59375 20.90625 L 13.257812 17.242188 L 24.570312 28.550781 C 24.402344 28.738281 24.304688 28.972656 24.285156 29.222656 C 24.253906 29.648438 24.414062 30.070312 24.71875 30.371094 L 25.933594 31.589844 C 26.472656 32.125 27.34375 32.125 27.878906 31.589844 L 31.597656 27.875 C 32.132812 27.335938 32.132812 26.464844 31.597656 25.925781 Z M 12.957031 16.335938 L 9.421875 19.867188 L 1.804688 12.25 L 12.246094 1.8125 L 19.863281 9.429688 L 16.328125 12.960938 Z M 15.199219 1.382812 L 20.292969 6.476562 C 20.917969 7.105469 20.984375 8.101562 20.449219 8.804688 L 12.871094 1.238281 C 13.574219 0.695312 14.570312 0.761719 15.199219 1.390625 Z M 6.476562 20.300781 L 1.375 15.199219 C 0.75 14.570312 0.6875 13.574219 1.230469 12.871094 L 8.800781 20.457031 C 8.09375 20.992188 7.101562 20.921875 6.472656 20.296875 Z M 16.632812 13.867188 L 28.039062 25.277344 L 26.898438 26.902344 L 25.261719 28.035156 L 13.851562 16.628906 Z M 30.980469 27.269531 L 27.261719 30.984375 C 27.058594 31.1875 26.730469 31.1875 26.523438 30.984375 L 25.308594 29.753906 C 25.1875 29.628906 25.125 29.460938 25.136719 29.285156 C 25.140625 29.199219 25.179688 29.117188 25.25 29.066406 L 27.449219 27.550781 C 27.492188 27.523438 27.527344 27.484375 27.558594 27.445312 L 29.078125 25.253906 C 29.128906 25.183594 29.210938 25.140625 29.296875 25.140625 C 29.46875 25.128906 29.640625 25.191406 29.765625 25.308594 L 30.984375 26.527344 C 31.1875 26.730469 31.1875 27.0625 30.984375 27.265625 Z M 30.980469 27.269531 "/>
<path style=" stroke:none;fill-rule:nonzero;fill:rgb(17.647059%,14.509804%,12.54902%);fill-opacity:1;" d="M 12.507812 9.167969 C 11.582031 8.261719 10.09375 8.277344 9.1875 9.203125 C 8.277344 10.128906 8.292969 11.617188 9.21875 12.523438 C 10.132812 13.417969 11.59375 13.417969 12.507812 12.523438 C 13.433594 11.601562 13.4375 10.101562 12.511719 9.175781 C 12.511719 9.171875 12.507812 9.171875 12.507812 9.167969 Z M 11.902344 11.910156 C 11.3125 12.5 10.359375 12.5 9.769531 11.910156 C 9.179688 11.320312 9.179688 10.367188 9.765625 9.777344 C 10.355469 9.1875 11.3125 9.183594 11.902344 9.773438 C 11.902344 9.773438 11.902344 9.777344 11.902344 9.777344 C 12.488281 10.363281 12.488281 11.316406 11.902344 11.90625 Z M 11.902344 11.910156 "/>
</g>
</svg>
